<svg xmlns="http://www.w3.org/2000/svg" id="_Слой_2" data-name="Слой 2" viewBox="50.16 123.34 411.69 249.3"><defs><style>.cls-1{fill:#ff2ae2}</style></defs><path d="M412.47 274.91h-94.75c-1.32 0-2.58.52-3.52 1.44l-44.37 43.87a4.998 4.998 0 0 0 0 7.11l44.37 43.87c.94.93 2.2 1.44 3.52 1.44h94.75c1.32 0 2.58-.52 3.52-1.44l44.37-43.87a4.998 4.998 0 0 0 0-7.11l-44.37-43.87c-.94-.93-2.2-1.44-3.52-1.44ZM194.28 274.82H99.53c-1.32 0-2.58.52-3.52 1.44l-44.37 43.87a4.998 4.998 0 0 0 0 7.11l44.37 43.87c.94.93 2.2 1.44 3.52 1.44h94.75c1.32 0 2.58-.52 3.52-1.44l44.37-43.87a4.998 4.998 0 0 0 0-7.11l-44.37-43.87c-.94-.93-2.2-1.44-3.52-1.44ZM207.02 172.71v94.75c0 1.32.52 2.58 1.44 3.52l43.87 44.37a4.998 4.998 0 0 0 7.11 0l43.87-44.37c.93-.94 1.44-2.2 1.44-3.52v-94.75c0-1.32-.52-2.58-1.44-3.52l-43.87-44.37a4.998 4.998 0 0 0-7.11 0l-43.87 44.37c-.93.94-1.44 2.2-1.44 3.52Z" class="cls-1"/></svg>